<svg xmlns="http://www.w3.org/2000/svg" width="916" height="1145" viewBox="0 0 916 1145">
<g>
<path d="M 433.50 937.41 C442.39,938.09 491.15,937.10 503.50,935.99 C518.30,934.66 541.12,930.95 559.00,926.95 C612.92,914.91 666.08,886.16 703.04,849.07 C729.43,822.58 749.30,794.51 765.38,761.00 C781.54,727.30 791.86,692.63 798.39,650.00 C806.29,598.51 805.59,537.16 796.48,483.54 C783.52,407.21 752.18,343.57 704.85,297.47 C698.06,290.85 689.12,282.73 685.00,279.41 C641.19,244.24 590.22,222.34 529.50,212.59 C504.61,208.59 496.52,207.91 466.76,207.30 C394.94,205.82 340.77,216.64 285.74,243.46 C204.16,283.21 147.50,359.17 123.52,460.95 C109.51,520.38 107.84,596.10 119.13,659.50 C130.08,720.98 151.64,772.78 184.46,816.47 C195.34,830.96 218.22,854.65 231.98,865.67 C274.89,900.06 328.30,923.12 386.50,932.39 C400.37,934.60 409.53,935.58 433.50,937.41 ZM 477.13 823.01 C432.94,827.31 387.85,816.91 354.50,794.71 C339.98,785.05 335.76,781.54 323.43,768.87 C299.94,744.75 285.72,720.44 273.50,683.49 C262.27,649.56 256.99,613.93 257.01,572.06 C257.01,551.92 259.01,520.41 261.04,508.50 C275.46,423.72 312.77,367.16 373.12,338.60 C424.98,314.05 494.03,315.06 546.09,341.13 C607.90,372.07 644.13,431.88 655.66,522.00 C657.65,537.63 658.56,589.79 657.13,606.84 C654.72,635.57 648.47,666.32 640.64,688.00 C634.59,704.75 633.98,706.17 627.46,718.94 C616.12,741.14 603.27,758.74 587.02,774.34 C559.83,800.43 517.78,819.06 477.13,823.01 Z" fill="rgb(0,0,0)"/>
<path d="M 803.47 553.26 L 799.39 553.57 C793.37,554.04 732.56,555.72 689.75,556.61 L 658.00 557.27 L 657.99 577.39 C657.99,585.13 657.87,591.79 657.59,598.05 C658.29,576.20 657.38,535.49 655.66,522.00 C644.13,431.88 607.90,372.07 546.09,341.13 C494.03,315.06 424.98,314.05 373.12,338.60 C312.77,367.16 275.46,423.72 261.04,508.50 C260.25,513.10 259.47,520.64 258.81,529.32 C258.83,528.79 258.82,528.48 258.78,528.45 C258.62,528.29 254.67,527.42 250.00,526.52 C245.32,525.62 238.35,524.23 234.50,523.43 C230.65,522.64 221.88,520.83 215.00,519.41 C194.53,515.19 190.16,514.20 175.50,510.44 C158.41,506.06 151.13,504.05 148.50,503.00 C144.97,501.58 120.50,495.00 118.77,495.00 C117.70,495.00 117.18,495.19 116.55,498.69 C118.37,485.60 120.69,472.94 123.52,460.95 C147.50,359.17 204.16,283.21 285.74,243.46 C340.77,216.64 394.94,205.82 466.76,207.30 C496.52,207.91 504.61,208.59 529.50,212.59 C590.22,222.34 641.19,244.24 685.00,279.41 C689.12,282.73 698.06,290.85 704.85,297.47 C752.18,343.57 783.52,407.21 796.48,483.54 C800.28,505.86 802.61,529.53 803.47,553.26 ZM 448.15 823.75 C414.19,822.34 381.16,812.45 354.50,794.71 C380.56,812.06 413.79,822.20 448.15,823.75 ZM 258.29 536.84 C257.57,548.06 257.08,560.23 257.01,570.08 C256.95,558.46 257.27,547.68 258.03,539.62 C258.12,538.66 258.21,537.73 258.29,536.84 ZM 111.72 575.49 C112.09,604.43 114.62,634.15 119.13,659.50 C114.40,632.96 111.95,604.25 111.72,575.49 ZM 258.76 611.78 C259.99,624.98 261.87,637.60 264.44,649.86 C263.12,643.82 261.97,637.82 261.04,632.00 C260.15,626.35 259.38,619.40 258.76,611.78 ZM 509.98 816.76 C530.25,811.04 549.77,802.09 566.45,790.83 C552.45,800.43 536.86,808.06 519.50,813.85 C516.35,814.91 513.18,815.87 509.98,816.76 ZM 802.87 607.24 C803.23,599.90 803.48,591.59 803.70,581.35 L 803.85 573.95 C803.86,585.16 803.53,596.30 802.87,607.24 ZM 293.79 730.22 C301.91,744.25 311.46,756.59 323.43,768.87 C310.79,755.90 301.82,744.35 293.79,730.22 ZM 646.10 670.50 C649.11,659.43 651.71,647.16 653.72,634.61 C653.62,635.23 653.52,635.86 653.42,636.50 C651.47,648.86 649.25,659.37 646.10,670.50 ZM 633.83 705.90 C635.22,702.70 636.51,699.36 638.41,694.14 C637.51,696.65 636.55,699.25 635.54,701.94 C635.24,702.76 634.63,704.15 633.83,705.90 Z" fill="rgb(191,253,113)"/>
<path d="M 258.29 536.84 C258.21,537.73 258.12,538.66 258.03,539.62 C257.27,547.68 256.95,558.46 257.01,570.08 C257.01,570.75 257.01,571.41 257.01,572.06 C257.00,585.93 257.58,599.12 258.76,611.78 L 258.76 611.78 C259.38,619.41 260.15,626.35 261.04,632.00 C261.97,637.82 263.12,643.82 264.44,649.86 C266.85,661.35 269.86,672.51 273.50,683.49 C279.49,701.62 285.97,716.71 293.79,730.22 C301.82,744.35 310.79,755.90 323.43,768.87 C335.76,781.54 339.98,785.05 354.50,794.71 C354.82,794.93 355.14,795.14 355.46,795.35 C350.25,792.06 345.11,788.48 340.00,784.59 L 335.49 781.17 L 313.00 779.55 C281.07,777.25 168.18,767.64 157.59,766.31 L 153.22 765.77 C137.42,734.01 126.12,698.73 119.13,659.50 C114.40,632.96 111.95,604.25 111.72,575.49 C111.51,549.42 113.13,523.29 116.55,498.69 C117.18,495.19 117.70,495.00 118.77,495.00 C120.50,495.00 144.97,501.58 148.50,503.00 C151.13,504.05 158.41,506.06 175.50,510.44 C190.16,514.20 194.53,515.19 215.00,519.41 C221.88,520.83 230.65,522.64 234.50,523.43 C238.35,524.23 245.32,525.62 250.00,526.52 C254.67,527.42 258.62,528.29 258.78,528.45 C258.82,528.48 258.83,528.79 258.81,529.32 C258.63,531.75 258.45,534.27 258.29,536.84 ZM 803.47 553.26 C803.72,560.16 803.85,567.07 803.85,573.95 L 803.70 581.35 C803.48,591.59 803.23,599.89 802.87,607.24 L 802.87 607.24 C801.98,621.97 800.49,636.33 798.39,650.00 C791.86,692.63 781.54,727.30 765.38,761.00 C758.11,776.16 750.06,790.20 740.98,803.49 L 727.81 802.78 C720.49,802.38 695.15,801.36 671.50,800.53 C610.92,798.37 561.02,795.78 561.62,794.81 C561.90,794.36 559.32,795.63 555.89,797.64 C541.86,805.87 526.39,812.27 510.20,816.70 C513.32,815.83 516.43,814.88 519.50,813.85 C536.86,808.06 552.45,800.43 566.45,790.83 C573.94,785.77 580.86,780.25 587.02,774.34 C603.27,758.74 616.12,741.14 627.46,718.94 C630.47,713.05 632.22,709.58 633.83,705.90 L 633.83 705.90 C634.63,704.15 635.24,702.76 635.54,701.94 C636.55,699.25 637.51,696.65 638.41,694.14 C639.07,692.34 639.80,690.32 640.64,688.00 C642.57,682.66 644.40,676.77 646.10,670.50 L 646.10 670.50 C649.25,659.37 651.47,648.86 653.42,636.50 C653.52,635.86 653.62,635.23 653.72,634.61 L 653.72,634.61 C655.20,625.39 656.36,616.01 657.13,606.84 C657.32,604.51 657.48,601.52 657.59,598.05 C657.87,591.79 657.99,585.13 657.99,577.39 L 658.00 557.27 L 689.75 556.61 C732.56,555.72 793.37,554.04 799.39,553.57 ZM 550.40 928.78 C566.67,925.28 582.49,920.86 596.65,915.81 C584.28,920.38 571.66,924.12 559.00,926.95 C556.23,927.57 553.35,928.18 550.40,928.78 ZM 640.77 895.55 C663.88,882.65 684.25,867.50 702.50,849.61 C684.98,867.08 663.86,882.69 640.77,895.55 ZM 727.15 822.17 C729.78,818.86 732.36,815.47 734.90,812.00 L 738.30 807.35 C734.74,812.39 731.03,817.33 727.15,822.17 ZM 171.22 797.46 C175.54,804.10 180.09,810.64 184.46,816.47 C179.82,810.30 175.41,803.96 171.22,797.46 ZM 448.15 823.75 C448.61,823.78 449.07,823.79 449.54,823.81 C447.54,823.74 445.55,823.64 443.56,823.51 C445.09,823.61 446.62,823.69 448.15,823.75 Z" fill="rgb(253,189,89)"/>
<path d="M 433.50 937.41 C409.53,935.58 400.37,934.60 386.50,932.39 C328.30,923.12 274.89,900.06 231.98,865.67 C218.32,854.73 195.36,830.99 184.66,816.74 C175.08,803.99 164.63,787.78 157.49,774.60 L 152.67 765.70 L 157.59 766.31 C168.18,767.64 281.07,777.25 313.00,779.55 L 335.49 781.17 L 340.00 784.59 C369.54,807.08 400.27,819.25 436.86,822.95 C478.00,827.11 521.32,817.90 555.89,797.64 C559.32,795.63 561.90,794.36 561.62,794.81 C561.02,795.78 610.92,798.37 671.50,800.53 C695.15,801.36 720.49,802.38 727.81,802.78 L 741.12 803.50 L 734.90 812.00 C703.59,854.79 665.52,885.53 615.82,908.12 C585.87,921.73 542.54,932.49 503.50,935.99 C491.15,937.10 442.39,938.09 433.50,937.41 Z" fill="rgb(252,87,86)"/>
</g>
</svg>
